# xmcd
#
# Track frame offsets:
#	150
#	13007
#	26105
#	43682
#	63092
#	78200
#	92212
#	107080
#	127307
#	145617
#	167720
#	189820
#	208762
#
# Disc length: 2981 seconds
#
# Revision: 0
# Processed by: cddbd v1.5.1PL2 Copyright (c) Steve Scherf et al.
# Submitted via: dBpowerAMP V4.0
#
DISCID=ac0ba30d
DTITLE=Suzana Salles, Lenine Santos, Ivan Vilela - Caipira
DYEAR=2004
DGENRE=Latin - Brazilian
TTITLE0=A dor da saudade
TTITLE1=Beijinho doce
TTITLE2=India
TTITLE3=Boi soberano
TTITLE4=Flor do cafezal
TTITLE5=Não ha coração que aguente
TTITLE6=Canoeiro
TTITLE7=Ingrata
TTITLE8=Pagode do ala
TTITLE9=Meu primeiro amor
TTITLE10=Cabocla Tereza
TTITLE11=Poeira
TTITLE12=Saudade da minha terra
EXTD=Brazilian country\nGlauco Missioneiro
EXTT0=
EXTT1=
EXTT2=
EXTT3=
EXTT4=
EXTT5=
EXTT6=
EXTT7=
EXTT8=
EXTT9=
EXTT10=
EXTT11=
EXTT12=
PLAYORDER=
